<svg width="20" height="20" viewBox="0 0 20 20" fill="none" xmlns="http://www.w3.org/2000/svg">
<path d="M5.78216 19.2497C4.97028 19.7407 3.91013 19.4871 3.41423 18.6833C3.17701 18.2987 3.10312 17.8369 3.20872 17.3986L4.35548 12.6388L0.601969 9.45538C-0.120537 8.84262 -0.204523 7.76598 0.41438 7.05064C0.710455 6.70843 1.13128 6.49613 1.58494 6.46012L6.51148 6.06908L8.4095 1.55097C8.77484 0.681283 9.78309 0.269499 10.6615 0.631221C11.0817 0.804264 11.4157 1.13492 11.5904 1.55097L13.4885 6.06908L18.415 6.46012C19.3633 6.53539 20.0704 7.35754 19.9944 8.29643C19.958 8.74559 19.7436 9.16224 19.398 9.45538L15.6445 12.6388L16.7912 17.3986C17.012 18.3148 16.4407 19.2347 15.5154 19.4532C15.0727 19.5578 14.6062 19.4846 14.2178 19.2497L9.99997 16.6991L5.78216 19.2497Z" fill="#8D75F2"/>
</svg>
